<?xml version="1.0" encoding="UTF-8"?>
<svg id="Layer_2" data-name="Layer 2" xmlns="http://www.w3.org/2000/svg" viewBox="0 0 74.52 78.27">
  <defs>
    <style>
      .cls-1 {
        fill: #eff8f8;
      }
    </style>
  </defs>
  <g id="Layer_2-2" data-name="Layer 2">
    <g>
      <path class="cls-1" d="M60.05,0h2.45V8.13h-2.45c-10.38,0-18.81,8.52-18.81,18.81v24.39c0,14.89-12.05,26.94-26.94,26.94h-2.45v-8.13h2.45c10.38,0,18.81-8.52,18.81-18.81V26.94C33.11,12.05,45.16,0,60.05,0Z"/>
      <polygon class="cls-1" points="18.61 31.24 18.61 31.24 18.72 31.24 18.61 31.24"/>
      <path class="cls-1" d="M0,30.25c0,6.21,5.03,11.24,11.24,11.24s11.24-5.03,11.24-11.24h-3.19c0,4.45-3.6,8.05-8.05,8.05s-8.05-3.6-8.05-8.04"/>
      <path class="cls-1" d="M63.28,18.97c-6.21,0-11.24,5.03-11.24,11.24s5.03,11.24,11.24,11.24,11.24-5.03,11.24-11.24-5.03-11.24-11.24-11.24Zm0,19.29c-4.45,0-8.05-3.6-8.05-8.05s3.6-8.05,8.05-8.05,8.05,3.6,8.05,8.05-3.6,8.05-8.05,8.05Z"/>
      <circle class="cls-1" cx="63.28" cy="30.22" r="2.92"/>
      <rect class="cls-1" x="62.41" y="39.66" width="2.1" height="4.24"/>
      <polygon class="cls-1" points="55.59 42.5 57.32 43.2 61.47 39.7 59.74 39.01 55.59 42.5"/>
      <polygon class="cls-1" points="65.45 39.78 67.18 39.08 71.33 42.58 69.6 43.27 65.45 39.78"/>
    </g>
  </g>
</svg>