<?xml version="1.0" encoding="utf-8"?>
<!-- Generator: Adobe Illustrator 26.5.0, SVG Export Plug-In . SVG Version: 6.00 Build 0)  -->
<svg version="1.1" id="Layer_1" xmlns="http://www.w3.org/2000/svg" xmlns:xlink="http://www.w3.org/1999/xlink" x="0px" y="0px"
	 viewBox="0 0 399 398.1" style="enable-background:new 0 0 399 398.1;" xml:space="preserve">
<style type="text/css">
	.st0{fill:#45C4B0;}
	.st1{font-family:'HossRound-RegularItalic';}
	.st2{font-size:110px;}
</style>
<text transform="matrix(1 0 0 1 0 124.0216)" class="st0 st1 st2">Hermes</text>
<g>
	<g>
		<path class="st0" d="M196.6,181c2,0,4,0,6.1,0c0.2,0,0.4,0.1,0.6,0.1c1.9,0.2,3.8,0.3,5.7,0.5c4.2,0.5,8.4,1.4,12.4,2.8
			c3.8,1.3,7.4,3,10.6,5.4c1.8,1.3,3.3,2.9,4.5,4.7c1.2,1.8,1.9,3.8,1.9,6c0,8.5,0,17-0.1,25.5c0,4.1-0.4,8.1-1.1,12.2
			c-0.5,2.7-1.1,5.4-2.3,8c-1.8,4.2-4.9,7.1-9.3,8.5c-2.3,0.8-4.6,1.2-7,1.5c-3.7,0.4-7.5,0.6-11.2,0.6c-3.5,0-7,0-10.5,0
			c-5.8,0-11.6,0-17.4,0.6c-2.4,0.3-4.7,0.7-7,1.4c-4.1,1.3-7.4,3.5-9.9,7c-1.5,2.2-2.5,4.5-3.3,7.1c-1.4,4.8-2,9.6-2.3,14.6
			c-0.2,3.2-0.2,6.5-0.3,9.7c0,0.1,0,0.3,0,0.5c-0.2,0-0.4,0-0.6,0c-5,0-10,0-14.9,0c-0.4,0-0.8,0-1.1-0.1c-2.3-0.3-4.2-1.3-6-2.7
			c-2.2-1.8-3.9-4-5.3-6.4c-2.1-3.5-3.5-7.3-4.6-11.3c-1.2-4.4-1.9-8.9-2.2-13.5c0-0.6-0.2-1.2-0.3-1.9c0-2,0-4,0-6.1
			c0.1-0.6,0.2-1.2,0.3-1.9c0.3-4.6,1-9.1,2.2-13.6c1.1-4.1,2.6-8,4.8-11.7c1.3-2.2,2.9-4.2,4.9-5.8c2.3-1.9,5-2.9,8-2.9
			c9.3,0,18.5,0,27.8,0c9.6,0,19.3,0,28.9,0c0.3,0,0.6,0,0.9,0c0-1.3,0-2.6,0-3.9c-12.9,0-25.8,0-38.8,0c0-0.4,0-0.6,0-0.8
			c0-4.8,0-9.7,0-14.5c0-2.1,0.5-3.9,1.6-5.7c1-1.6,2.2-3,3.6-4.2c2.7-2.3,5.8-4,9.1-5.3c6.5-2.6,13.2-3.9,20.2-4.3
			C195.6,181.1,196.1,181.1,196.6,181z M185.4,200.4c0-4-3.2-7.2-7.2-7.1c-4,0-7.2,3.2-7.1,7.2c0,4,3.2,7.2,7.2,7.2
			C182.2,207.6,185.4,204.4,185.4,200.4z"/>
		<path class="st0" d="M242.3,219.9c0.4,0,0.6,0,0.9,0c4.8,0,9.5,0,14.3,0c2.5,0,4.7,0.7,6.7,2.1c1.7,1.2,3.1,2.6,4.4,4.3
			c2.4,3.1,4,6.6,5.3,10.3c1.5,4.2,2.4,8.6,2.9,13.1c0.6,4.6,0.6,9.1,0.4,13.7c-0.3,7.1-1.7,14.1-4.5,20.7c-1.4,3.2-3,6.2-5.4,8.8
			c-1,1.1-2.1,2.1-3.4,3c-1.9,1.2-4,1.9-6.3,1.9c-18.9,0-37.9,0-56.8,0c-0.3,0-0.7,0-1,0c0,1.3,0,2.5,0,3.9c12.9,0,25.8,0,38.8,0
			c0,0.4,0,0.7,0,1c0,4.7,0,9.3,0,14c0,2.8-0.8,5.2-2.5,7.4c-1.3,1.7-2.9,3.1-4.6,4.4c-3.3,2.3-7,4-10.8,5.2
			c-4.2,1.3-8.4,2.2-12.7,2.6c-3.3,0.3-6.6,0.6-9.8,0.4c-6.9-0.2-13.6-1.1-20.1-3.3c-3.7-1.2-7.2-2.9-10.3-5.2
			c-1.7-1.2-3.2-2.6-4.4-4.3c-1.5-2.1-2.3-4.4-2.3-7.1c0.1-7.9,0-15.8,0.1-23.8c0-4.7,0.4-9.4,1.2-14c0.4-2.4,1-4.8,1.9-7.2
			c1.9-4.9,5.4-8,10.5-9.4c2.6-0.7,5.2-1,7.9-1.2c5.9-0.4,11.8-0.3,17.7-0.3c3.8,0,7.6,0,11.5-0.2c3.9-0.1,7.8-0.4,11.6-1.2
			c2.7-0.6,5.4-1.4,7.8-2.8c3.6-2.1,6.1-5.2,7.7-9c1.2-2.8,1.9-5.6,2.4-8.6c1-5.9,1.2-11.9,1.2-17.9
			C242.3,220.7,242.3,220.3,242.3,219.9z M220.9,324.2c4,0,7.2-3.2,7.2-7.2c0-4-3.2-7.2-7.2-7.2c-4,0-7.2,3.2-7.2,7.1
			C213.7,321,216.9,324.2,220.9,324.2z"/>
	</g>
</g>
</svg>
