<?xml version="1.0" encoding="utf-8"?>
<!-- Generator: Adobe Illustrator 26.5.0, SVG Export Plug-In . SVG Version: 6.00 Build 0)  -->
<svg version="1.1" id="Layer_1" xmlns="http://www.w3.org/2000/svg" xmlns:xlink="http://www.w3.org/1999/xlink" x="0px" y="0px"
	 viewBox="0 0 399 398.1" style="enable-background:new 0 0 399 398.1;" xml:space="preserve">
<style type="text/css">
	.st0{enable-background:new    ;}
	.st1{fill:#45C4B0;}
</style>
<g class="st0">
	<path class="st1" d="M2.4,120.4l17.3-69.1c0.7-2.9,2.5-4.5,5.4-4.5c2.5,0,4.5,1.9,3.9,5l-7,28.2h39.6l7.2-28.6
		c0.7-2.9,2.5-4.5,5.5-4.5c2.4,0,4.4,1.9,3.7,5l-17.3,69.1c-0.7,2.9-2.5,4.5-5.5,4.5c-2.4,0-4.4-1.9-3.7-5l7.5-29.9H19.2l-7.6,30.4
		c-0.8,2.9-2.5,4.5-5.5,4.5C3.7,125.3,1.6,123.5,2.4,120.4z"/>
	<path class="st1" d="M79,103c0-20.1,15.4-38.7,36.9-38.7c13.1,0,20.8,6.5,20.8,16.5c0,13.1-12.6,20-25.9,20
		c-8.4,0-17.8-2.9-21.3-6.9c-0.6,2.1-1.1,4.7-1.1,7.4c0,9.1,5.8,14.3,16.2,14.3c8.8,0,14.2-3.6,18.2-7.7c1.5-1.4,2.9-2.3,4.5-2.3
		c2,0,3.9,1.5,3.9,4.2c0,6.7-13.9,15.6-27.1,15.6C88,125.3,79,116.9,79,103z M126.9,82c0-4.8-4.5-8.4-12.3-8.4
		c-9.8,0-20.5,7.3-23.9,16.9C104.7,95.8,126.9,94.4,126.9,82z"/>
	<path class="st1" d="M139.9,120.3l10.5-41.5l1.5-9.7c0.4-2.4,2.4-4.6,5.2-4.6c2.3,0,4.1,1.8,3.5,4.5L158,82.6
		c4.5-1.5,11.3-7.5,15.4-14c2-3.4,4.6-4.3,7-2.9c2.8,1.7,2.8,5-0.1,9.6c-4.5,6.9-13.5,13.1-23,12.4l-8.2,33c-0.7,2.8-3,4.6-5.5,4.6
		C140.9,125.3,139.1,123.3,139.9,120.3z"/>
	<path class="st1" d="M180.4,120.3l9.8-39.3l2.3-11.9c0.5-2.3,2.5-4.6,5.5-4.6c2.2,0,4,1.8,3.3,4.4L199,79.1h0.7
		c5-10.3,14-14.9,22.3-14.9c9.7,0,14.9,5.3,14.1,14.5h0.7c5.3-10.2,13.8-14.5,22.1-14.5c10.2,0,16.7,7.3,13.3,20.1l-7.3,27.6
		c-1,3.6,1.2,3,3.4,2.9c1.9,0,2.6,1.3,2.6,3.1c0,3.6-3.6,7-8.9,7.1c-5.8,0.1-8.7-4-6.9-10.6l7.4-28.2c1.9-7.3-0.9-11.9-8.9-11.9
		c-9.8,0-17.4,7-18.8,12.9l-8.4,33.4c-0.8,2.6-2.9,4.5-5.6,4.5c-2.5,0-4.3-2-3.5-5.1l8.6-34.4c1.6-6.6-1-11.3-9.2-11.3
		c-9.8,0-17.3,7-18.8,13.3l-8.2,33c-0.8,2.6-2.9,4.5-5.6,4.5C181.4,125.3,179.6,123.4,180.4,120.3z"/>
	<path class="st1" d="M281.3,103c0-20.1,15.4-38.7,36.9-38.7c13.1,0,20.8,6.5,20.8,16.5c0,13.1-12.7,20-25.8,20
		c-8.4,0-17.8-2.9-21.3-6.9c-0.5,2.1-1.1,4.7-1.1,7.4c0,9.1,5.8,14.3,16.2,14.3c8.8,0,14.2-3.6,18.2-7.7c1.5-1.4,2.9-2.3,4.5-2.3
		c2,0,3.8,1.5,3.8,4.2c0,6.7-13.9,15.6-27.1,15.6C290.3,125.3,281.3,116.9,281.3,103z M329.2,82c0-4.8-4.5-8.4-12.3-8.4
		c-9.8,0-20.5,7.3-23.9,16.9C307,95.8,329.2,94.4,329.2,82z"/>
	<path class="st1" d="M340.7,111.6c0-3.1,2-5,4.4-5c2.3,0,3.2,1.3,4.6,3.6c1.4,2.3,5.1,5.4,14.7,5.4c10.6,0,18.2-3.8,18.2-10.2
		c0-5.7-8.6-6.3-16.9-7.2c-11.2-1.3-18.1-4.7-18.1-14.5c0-11.2,10.6-19.5,26.5-19.5c13.3,0,21.9,5.1,21.9,13.4
		c0,3.2-1.8,5.7-4.6,5.7c-2.4,0-3.3-1.7-4.2-3.6c-1.2-2.8-3.8-5.8-14.1-5.8c-10,0-16.5,4-16.5,9.1c0,4.6,3.2,5.9,13.6,7.1
		c10.6,1.3,21.6,2.6,21.6,14.4c0,11.3-11.3,20.7-28.6,20.7C349.2,125.3,340.7,119.6,340.7,111.6z"/>
</g>
<g>
	<g>
		<path class="st1" d="M196.6,181c2,0,4,0,6.1,0c0.2,0,0.4,0.1,0.6,0.1c1.9,0.2,3.8,0.3,5.7,0.5c4.2,0.5,8.4,1.4,12.4,2.8
			c3.8,1.3,7.4,3,10.6,5.4c1.8,1.3,3.3,2.9,4.5,4.7s1.9,3.8,1.9,6c0,8.5,0,17-0.1,25.5c0,4.1-0.4,8.1-1.1,12.2
			c-0.5,2.7-1.1,5.4-2.3,8c-1.8,4.2-4.9,7.1-9.3,8.5c-2.3,0.8-4.6,1.2-7,1.5c-3.7,0.4-7.5,0.6-11.2,0.6c-3.5,0-7,0-10.5,0
			c-5.8,0-11.6,0-17.4,0.6c-2.4,0.3-4.7,0.7-7,1.4c-4.1,1.3-7.4,3.5-9.9,7c-1.5,2.2-2.5,4.5-3.3,7.1c-1.4,4.8-2,9.6-2.3,14.6
			c-0.2,3.2-0.2,6.5-0.3,9.7c0,0.1,0,0.3,0,0.5c-0.2,0-0.4,0-0.6,0c-5,0-10,0-14.9,0c-0.4,0-0.8,0-1.1-0.1c-2.3-0.3-4.2-1.3-6-2.7
			c-2.2-1.8-3.9-4-5.3-6.4c-2.1-3.5-3.5-7.3-4.6-11.3c-1.2-4.4-1.9-8.9-2.2-13.5c0-0.6-0.2-1.2-0.3-1.9c0-2,0-4,0-6.1
			c0.1-0.6,0.2-1.2,0.3-1.9c0.3-4.6,1-9.1,2.2-13.6c1.1-4.1,2.6-8,4.8-11.7c1.3-2.2,2.9-4.2,4.9-5.8c2.3-1.9,5-2.9,8-2.9
			c9.3,0,18.5,0,27.8,0c9.6,0,19.3,0,28.9,0c0.3,0,0.6,0,0.9,0c0-1.3,0-2.6,0-3.9c-12.9,0-25.8,0-38.8,0c0-0.4,0-0.6,0-0.8
			c0-4.8,0-9.7,0-14.5c0-2.1,0.5-3.9,1.6-5.7c1-1.6,2.2-3,3.6-4.2c2.7-2.3,5.8-4,9.1-5.3c6.5-2.6,13.2-3.9,20.2-4.3
			C195.6,181.1,196.1,181.1,196.6,181z M185.4,200.4c0-4-3.2-7.2-7.2-7.1c-4,0-7.2,3.2-7.1,7.2c0,4,3.2,7.2,7.2,7.2
			C182.2,207.6,185.4,204.4,185.4,200.4z"/>
		<path class="st1" d="M242.3,219.9c0.4,0,0.6,0,0.9,0c4.8,0,9.5,0,14.3,0c2.5,0,4.7,0.7,6.7,2.1c1.7,1.2,3.1,2.6,4.4,4.3
			c2.4,3.1,4,6.6,5.3,10.3c1.5,4.2,2.4,8.6,2.9,13.1c0.6,4.6,0.6,9.1,0.4,13.7c-0.3,7.1-1.7,14.1-4.5,20.7c-1.4,3.2-3,6.2-5.4,8.8
			c-1,1.1-2.1,2.1-3.4,3c-1.9,1.2-4,1.9-6.3,1.9c-18.9,0-37.9,0-56.8,0c-0.3,0-0.7,0-1,0c0,1.3,0,2.5,0,3.9c12.9,0,25.8,0,38.8,0
			c0,0.4,0,0.7,0,1c0,4.7,0,9.3,0,14c0,2.8-0.8,5.2-2.5,7.4c-1.3,1.7-2.9,3.1-4.6,4.4c-3.3,2.3-7,4-10.8,5.2
			c-4.2,1.3-8.4,2.2-12.7,2.6c-3.3,0.3-6.6,0.6-9.8,0.4c-6.9-0.2-13.6-1.1-20.1-3.3c-3.7-1.2-7.2-2.9-10.3-5.2
			c-1.7-1.2-3.2-2.6-4.4-4.3c-1.5-2.1-2.3-4.4-2.3-7.1c0.1-7.9,0-15.8,0.1-23.8c0-4.7,0.4-9.4,1.2-14c0.4-2.4,1-4.8,1.9-7.2
			c1.9-4.9,5.4-8,10.5-9.4c2.6-0.7,5.2-1,7.9-1.2c5.9-0.4,11.8-0.3,17.7-0.3c3.8,0,7.6,0,11.5-0.2c3.9-0.1,7.8-0.4,11.6-1.2
			c2.7-0.6,5.4-1.4,7.8-2.8c3.6-2.1,6.1-5.2,7.7-9c1.2-2.8,1.9-5.6,2.4-8.6c1-5.9,1.2-11.9,1.2-17.9
			C242.3,220.7,242.3,220.3,242.3,219.9z M220.9,324.2c4,0,7.2-3.2,7.2-7.2s-3.2-7.2-7.2-7.2s-7.2,3.2-7.2,7.1
			C213.7,321,216.9,324.2,220.9,324.2z"/>
	</g>
</g>
</svg>
